<svg xmlns="http://www.w3.org/2000/svg" viewBox="0 0 470.926 393.666">
  <g id="asdfsdaf" transform="translate(0 -0.006)" style="isolation: isolate">
    <g id="Group_68" data-name="Group 68" transform="translate(0 0.006)">
      <path id="Path_332" data-name="Path 332" d="M93.735,90.613H42.07s4.565-8.319,17.869-7.11c12.7,1.159,13.368-4.089,19.8-4.736S91.58,83.076,93.735,90.613Z" transform="translate(-12.156 -22.748)" fill="#e8e8e8"/>
      <path id="Path_333" data-name="Path 333" d="M122.305,29.335H96.53s2.275-4.153,8.917-3.555c6.335.576,6.655-2.041,9.876-2.361S121.232,25.573,122.305,29.335Z" transform="translate(-27.893 -6.763)" fill="#e8e8e8"/>
      <path id="Path_334" data-name="Path 334" d="M593.123,67.654,538.28,66.417s5.048-8.717,19.134-7.11c13.453,1.529,14.264-4.025,21.139-4.551S591.018,59.6,593.123,67.654Z" transform="translate(-155.538 -15.816)" fill="#e8e8e8"/>
      <path id="Path_335" data-name="Path 335" d="M555.466,30.947H516.06s3.513-6.343,13.631-5.432c9.684.882,10.175-3.121,15.1-3.612S553.824,25.2,555.466,30.947Z" transform="translate(-149.118 -6.321)" fill="#e8e8e8"/>
      <g id="Group_61" data-name="Group 61" transform="translate(212.205 15.989)">
        <ellipse id="Ellipse_12" data-name="Ellipse 12" cx="129.361" cy="13.332" rx="129.361" ry="13.332" transform="translate(0 351.013)" fill="#dfdfde"/>
        <g id="Group_60" data-name="Group 60" transform="translate(24.415)">
          <path id="Path_336" data-name="Path 336" d="M491.66,224.034s13.716,12.294,27.475,12.9c0,0,14.74-11.775,17.691-24.588,0,0,5.539-34.45-5.752-46.41L517.621,151s-9.955-13.908-19.127-6.286c0,0-2.325-16.454-9.3-23.017C489.229,121.7,472.377,188.247,491.66,224.034Z" transform="translate(-376.014 -51.159)" fill="#261f4e"/>
          <g id="Group_51" data-name="Group 51" transform="translate(106.358 91.278)" opacity="0.2" style="mix-blend-mode: multiply;isolation: isolate">
            <path id="Path_337" data-name="Path 337" d="M531.058,174.361l-4.032-4.48c-14.335,6.485-21.687,15.188-25.278,23.564-1.842-11.377-2.695-19.973-2.695-19.973-1.891-18.942,11.974-20.329,11.981-20.329-3.555-2.346-8.156-3.662-12.557,0-6.84,5.3-12,12.536-15.643,18.864-1.358,20.243-.242,43.715,8.781,60.439,0,0,13.716,12.294,27.475,12.9-4.544-4.089-8.227-12.913-11.149-23.024C506.35,192.372,531.058,174.361,531.058,174.361Z" transform="translate(-482.356 -150.864)" fill="#1a1437"/>
          </g>
          <path id="Path_338" data-name="Path 338" d="M384.672,270.64s1.529,29.153-10.282,39.2l5.169,3.555s11.419-15.33,8.9-42.72Z" transform="translate(-344.801 -94.196)" fill="#1a1437"/>
          <path id="Path_339" data-name="Path 339" d="M358.672,263.84s-9.016,17.4,0,34.237l5.3-4.266s-6.335-14.072-1.059-28.648Z" transform="translate(-339.101 -92.231)" fill="#1a1437"/>
          <path id="Path_340" data-name="Path 340" d="M345.094,162.3s-23.344,22.54-5.759,48.742C339.335,211.042,353.741,189.035,345.094,162.3Z" transform="translate(-332.777 -62.891)" fill="#1a1437"/>
          <path id="Path_341" data-name="Path 341" d="M349.873,108.44s-11.661,10.815-.654,27.845C349.219,136.285,362.16,125.96,349.873,108.44Z" transform="translate(-336.161 -47.327)" fill="#1a1437"/>
          <path id="Path_342" data-name="Path 342" d="M347.228,88.235s27.894-33.874,59.109-4.977c0,0,6.876,83.192-24.659,133.456,0,0-23.564,6.087-44.938-9.7C336.74,207.023,350.357,135.833,347.228,88.235Z" transform="translate(-333.922 -36.679)" fill="#f3724c"/>
          <path id="Path_343" data-name="Path 343" d="M410.981,106.854c-.036-3.015-.107-5.688-.192-7.914-19.084,12.372-45.223,18.039-59.159,20.315-.149,6.222-.469,12.571-.91,18.885C379.894,130.71,401.4,114.953,410.981,106.854Z" transform="translate(-337.961 -44.582)" fill="#261f4e"/>
          <path id="Path_344" data-name="Path 344" d="M345.152,192.5c-.455,3.655-.924,7.189-1.422,10.538,11.853,1.351,35.659.583,61.029-19.959.676-4.124,1.251-8.2,1.721-12.187C394.833,177.19,365.623,191.816,345.152,192.5Z" transform="translate(-335.942 -65.373)" fill="#261f4e"/>
          <path id="Path_345" data-name="Path 345" d="M346.4,247.586a18.573,18.573,0,0,0-6.7-11.163c-1.685,10.666-2.965,17.385-2.965,17.385,21.374,15.785,44.938,9.7,44.938,9.7A135.809,135.809,0,0,0,395.337,233.5C373.558,249.541,346.4,247.586,346.4,247.586Z" transform="translate(-333.922 -83.464)" fill="#261f4e"/>
          <path id="Path_346" data-name="Path 346" d="M410.6,83.257c-31.215-28.9-59.109,4.977-59.109,4.977S376.661,97.307,410.6,83.257Z" transform="translate(-338.184 -36.678)" fill="#f58c6f"/>
          <g id="Group_52" data-name="Group 52" transform="translate(20.62 46.579)" opacity="0.2" style="mix-blend-mode: multiply;isolation: isolate">
            <path id="Path_347" data-name="Path 347" d="M413.571,88a102.391,102.391,0,0,1-27.19,7.182c-.242,3.776-.526,7.949-.853,12.408a41.632,41.632,0,0,0-14.633,1.422c-.711,13.688,2.645,22.853,2.645,22.853a20.18,20.18,0,0,0,9.656,2.944c-.427,4.266-.889,8.653-1.387,13.062a41.951,41.951,0,0,0-14.335,1.465c-.711,13.688,2.645,22.853,2.645,22.853a19.774,19.774,0,0,0,8.085,2.8c-.711,4.5-1.422,8.931-2.24,13.233a42.108,42.108,0,0,0-13.161,0c-2.311,13.51,0,23,0,23a19.433,19.433,0,0,0,6.975,3.555c-.711,2.453-1.507,4.792-2.311,6.968a56.13,56.13,0,0,0,21.474-.277C420.447,171.192,413.571,88,413.571,88Z" transform="translate(-361.776 -88)" fill="#1a1437"/>
          </g>
          <path id="Path_348" data-name="Path 348" d="M593.516,486.156l25.6-8.156a9.351,9.351,0,0,1,7.459,5.688,300.053,300.053,0,0,1-42.947,28.292l-7.566-9.4S590.395,487.144,593.516,486.156Z" transform="translate(-403.074 -154.113)" fill="#008fcf"/>
          <path id="Path_349" data-name="Path 349" d="M584.12,511l1.835,2.275A300.054,300.054,0,0,0,628.9,485.012a8.753,8.753,0,0,0-1.493-2.432A334.99,334.99,0,0,1,584.12,511Z" transform="translate(-405.403 -155.437)" fill="#352d6a"/>
          <path id="Path_350" data-name="Path 350" d="M414.285,518.7l-25.875-7.3c-3.15-.889-23.6,4.074-23.6,4.074l1.131,12.017a300.061,300.061,0,0,0,51.437.043A9.33,9.33,0,0,0,414.285,518.7Z" transform="translate(-342.033 -163.733)" fill="#008fcf"/>
          <path id="Path_351" data-name="Path 351" d="M366,529.39l.313,3.328a300.06,300.06,0,0,0,51.437.043,8.69,8.69,0,0,0,.043-3.285A331.353,331.353,0,0,1,366,529.39Z" transform="translate(-342.377 -168.963)" fill="#352d6a"/>
          <path id="Path_352" data-name="Path 352" d="M470.5,70.614s1.422-9.244,0-16.56c0,0-5.056-25.825,6.734-30.881,0,0,47.164-5.048,31.442,12.351,0,0,4.209,21.331-1.962,35.09,0,0-3.932,2.844-13.474,0a49.31,49.31,0,0,1-8.141,14.6Z" transform="translate(-372.262 -22.493)" fill="#f58867"/>
          <path id="Path_353" data-name="Path 353" d="M508.678,35.524c15.721-17.4-31.442-12.351-31.442-12.351-11.789,5.056-6.734,30.881-6.734,30.881a41.592,41.592,0,0,1,.619,7.822,78.272,78.272,0,0,0,9.706.235c-.348-1.891,0-11.014,0-11.014-.178-10.324,4.814-9.464,4.814-9.464,6.2.171,4.977,11.107,4.977,11.107h2.745V45.778c3.961-2.759,3.271-10.253,3.271-10.253C499.591,36.122,508.678,35.524,508.678,35.524Z" transform="translate(-372.262 -22.493)" fill="#261f4e"/>
          <path id="Path_354" data-name="Path 354" d="M467.1,267.36,414.79,280.3,529.46,441.708s14.8,1.543,17.456-16.4Z" transform="translate(-356.475 -93.248)" fill="#352d6a"/>
          <path id="Path_355" data-name="Path 355" d="M472,216.761l-57.332,14.178s-2.467-71.5,6.783-104.211c0,0,8.014-21.573,25.271-30.2l22.846,17.9S471.382,193.339,472,216.761Z" transform="translate(-356.353 -43.886)" fill="#2b5485"/>
          <path id="Path_356" data-name="Path 356" d="M481.48,191.551c-5.56-2.9-18.594-9.812-18.779-11.007-.235-1.522-9.073-36.854-9.073-36.854s-8.5,38.4,2.51,54.544c0,0,4.153,22.448,25.683,7.487C481.715,201.235,481.6,196.464,481.48,191.551Z" transform="translate(-366.793 -57.513)" fill="#244874"/>
          <path id="Path_357" data-name="Path 357" d="M409.349,303.36S367.475,428.44,364.83,455.389c0,0,8.817,3.854,27.688-2.922l41.8-113.966Z" transform="translate(-342.039 -103.65)" fill="#352d6a"/>
          <path id="Path_358" data-name="Path 358" d="M425.908,304.668c-.27.8-.647,1.934-1.131,3.385v.057l-1.138,3.427,19.973,47.974,7.708-21.011-24.965-35.14L426,304.434A2.269,2.269,0,0,0,425.908,304.668Z" transform="translate(-359.032 -103.65)" fill="#261f4e"/>
          <path id="Path_359" data-name="Path 359" d="M493.662,185.279s13.986-4.977,21.082-13.673c0,0-.59-3.107,4.878-8.874,0,0,12.87-4.437,13.453,14.932,0,0-2.361,4.1-11.234,5.084,0,0-20.955,18.857-31.4,26.849C490.44,209.6,486.437,197.047,493.662,185.279Z" transform="translate(-378.015 -62.889)" fill="#f58867"/>
          <path id="Path_360" data-name="Path 360" d="M532.459,176.54c-1.529,1.209-6.172,4.458-11.725,4.352,0,0-20.528,16.98-24.247,19.575a38.246,38.246,0,0,0-.441-12.038c-1.493.633-2.425.967-2.425.967-7.224,11.768-3.221,24.318-3.221,24.318,10.445-7.992,31.4-26.849,31.4-26.849,8.874-.988,11.234-5.084,11.234-5.084A31.528,31.528,0,0,0,532.459,176.54Z" transform="translate(-378.003 -67.005)" fill="#e7724c"/>
          <path id="Path_361" data-name="Path 361" d="M440.4,106.858a66.283,66.283,0,0,0-11.782,16.055c25.939-24.624,45.194,1.337,45.2,1.344-.071-3.029-.128-5.212-.149-6.314v-.818l-3.8-2.979C458.093,105.542,448.088,104.732,440.4,106.858Z" transform="translate(-360.471 -46.584)" fill="#261f4e"/>
          <path id="Path_362" data-name="Path 362" d="M482.3,172.947h0c-.412-17.52-.818-34.536-1.031-43.779,0,0-15.565-18.921-26.515,8.533,0,0-2.418,42.385,5.439,51.714C460.2,189.4,476.316,178.407,482.3,172.947Z" transform="translate(-367.922 -51.48)" fill="#2b5485"/>
          <path id="Path_363" data-name="Path 363" d="M484.665,189.54s2.133,1.664,2.133,5.546c0,0-1.906,17.172-4.067,22.384,0,0-17.293,6.7-20.151-8.789Z" transform="translate(-370.284 -70.762)" fill="#496a96"/>
          <path id="Path_364" data-name="Path 364" d="M467.6,268.341l-.5-.981L414.79,280.3l7.374,10.374Z" transform="translate(-356.475 -93.248)" fill="#261f4e"/>
          <g id="Group_53" data-name="Group 53" transform="translate(28.292 63.464)">
            <path id="Path_365" data-name="Path 365" d="M372.668,113.349s16.29-5.176,27.2,3.079c0,0-2.062,15.807-6.328,21.836,0,0-10,3.121-18.224-2.069C375.314,136.195,371.943,127.029,372.668,113.349Z" transform="translate(-372.566 -111.747)" fill="#352d6a"/>
            <path id="Path_366" data-name="Path 366" d="M379.424,121.66s1.6,4.266,7.907,5.873c0,0-2.766,12.187-10.9,10.723,8.227,5.191,18.224,2.069,18.224,2.069,3.889-5.5,5.944-19.084,6.279-21.445C400.364,119.506,390.118,130.513,379.424,121.66Z" transform="translate(-373.683 -113.808)" fill="#292153"/>
          </g>
          <g id="Group_54" data-name="Group 54" transform="translate(24.872 103.787)">
            <path id="Path_367" data-name="Path 367" d="M367.858,170.059s16.29-5.176,27.2,3.079c0,0-2.069,15.807-6.335,21.836,0,0-10,3.121-18.224-2.069C370.5,192.9,367.133,183.775,367.858,170.059Z" transform="translate(-367.756 -168.457)" fill="#352d6a"/>
            <path id="Path_368" data-name="Path 368" d="M374.613,178.37s1.6,4.266,7.907,5.873c0,0-2.766,12.187-10.9,10.723,8.227,5.191,18.224,2.069,18.224,2.069,3.889-5.5,5.944-19.084,6.278-21.445C395.554,176.216,385.308,187.258,374.613,178.37Z" transform="translate(-368.873 -170.518)" fill="#292153"/>
          </g>
          <g id="Group_55" data-name="Group 55" transform="translate(19.567 143.61)">
            <path id="Path_369" data-name="Path 369" d="M361.33,225s16.781-3.249,26.664,6.222c0,0-3.889,15.458-8.824,20.947,0,0-10.3,1.941-17.869-4.167C361.3,248,359.019,238.511,361.33,225Z" transform="translate(-360.295 -224.463)" fill="#352d6a"/>
            <path id="Path_370" data-name="Path 370" d="M366.613,234.766s1.088,4.437,7.174,6.755c0,0-4.167,11.789-12.088,9.386,7.573,6.108,17.869,4.167,17.869,4.167,4.494-4.977,8.12-18.26,8.725-20.563C387.66,235.065,376.205,244.813,366.613,234.766Z" transform="translate(-360.701 -227.366)" fill="#292153"/>
          </g>
          <g id="Group_56" data-name="Group 56" transform="translate(26.069 34.926)" opacity="0.2" style="mix-blend-mode: multiply;isolation: isolate">
            <path id="Path_371" data-name="Path 371" d="M369.44,90.716c10.616,1.045,27.055.533,46.346-7.445-9.578-8.867-18.836-11.81-27.077-11.654C388.51,75.642,386.192,85.255,369.44,90.716Z" transform="translate(-369.44 -71.612)" fill="#1a1437"/>
          </g>
          <path id="Path_372" data-name="Path 372" d="M530.594,69.079a36.885,36.885,0,0,0-4.266-11.249,73.611,73.611,0,0,1-.277,10.737C527.849,68.858,530.594,69.079,530.594,69.079Z" transform="translate(-388.624 -32.703)" fill="#e7724c"/>
          <path id="Path_373" data-name="Path 373" d="M492.608,78.31s-5.6,5.589,4.792,13.51a44.659,44.659,0,0,0,2.133-5.041S489.963,84.738,492.608,78.31Z" transform="translate(-378.526 -38.621)" fill="#e7724c"/>
          <path id="Path_374" data-name="Path 374" d="M465.729,86.82s-5.61,2.695-5.859,6.926l22.846,17.876,4-3.84Z" transform="translate(-369.501 -41.08)" fill="#496a96"/>
          <path id="Path_375" data-name="Path 375" d="M445.58,277.668,546.925,442.56a14.936,14.936,0,0,0,2.19-1.422L448.232,277Z" transform="translate(-365.372 -96.034)" fill="#443c74"/>
          <path id="Path_376" data-name="Path 376" d="M375.86,463.341a27.783,27.783,0,0,0,2.8-.1l47.725-133.513-1.834-2.588Z" transform="translate(-345.226 -110.522)" fill="#443c74"/>
          <g id="Group_58" data-name="Group 58" transform="translate(119.472 146.711)">
            <path id="Path_377" data-name="Path 377" d="M500.8,231.545s11.334-5.582,20.222-.754c0,0,.235,11.775-2.211,16.646,0,0-6.961,3.392-13.545.512A46.282,46.282,0,0,1,500.8,231.545Z" transform="translate(-500.8 -228.824)" fill="#261f4e"/>
            <g id="Group_57" data-name="Group 57" transform="translate(4.437 2.258)" opacity="0.2" style="mix-blend-mode: multiply;isolation: isolate">
              <path id="Path_378" data-name="Path 378" d="M507.417,236.409s1.643,2.951,6.4,3.413c0,0-.711,9.244-6.776,9.044,6.584,2.844,13.545-.512,13.545-.512,2.233-4.444,2.233-14.6,2.211-16.354C522.484,232.512,516.213,241.692,507.417,236.409Z" transform="translate(-507.04 -232)" fill="#1a1437"/>
            </g>
          </g>
          <path id="Path_379" data-name="Path 379" d="M535.874,220.337s10.182-2.588,17.357-10.147c0,0,11.377,23.649-7.11,39.577C546.12,249.767,529.688,258.214,535.874,220.337Z" transform="translate(-391.06 -76.729)" fill="#1a1437"/>
          <g id="Group_59" data-name="Group 59" transform="translate(143.45 141.176)" opacity="0.2" style="mix-blend-mode: multiply;isolation: isolate">
            <path id="Path_380" data-name="Path 380" d="M556.5,225.648c-14.783,2.922-15.508,15.842-15.508,15.842-2.247-5.1,0-16.354,0-16.354a42.816,42.816,0,0,0,8.362-4.1c-4.487,1.827-7.11,0-7.11,0h0a39.108,39.108,0,0,1-6.328,2.4c-6.186,37.877,10.246,29.43,10.246,29.43C555.98,244.426,557.359,233.768,556.5,225.648Z" transform="translate(-534.522 -221.04)" fill="#1a1437"/>
          </g>
        </g>
      </g>
      <g id="Group_63" data-name="Group 63">
        <path id="Path_381" data-name="Path 381" d="M257.953,527.779c0,7.345-57.744,13.3-128.977,13.3S0,535.125,0,527.779,57.744,514.49,128.977,514.49,257.953,520.441,257.953,527.779Z" transform="translate(0 -148.668)" fill="#dfdfde"/>
        <g id="Group_62" data-name="Group 62" transform="translate(28.625)">
          <path id="Path_382" data-name="Path 382" d="M57.381,104.74S34.45,119.48,41.66,169.1c0,0-.711,2.759,8.369,6.719,0,0,10.509-4.266,10.509-5.575V138.4Z" transform="translate(-40.257 -30.269)" fill="#ca495a"/>
          <path id="Path_383" data-name="Path 383" d="M52.676,172.8c-9.045-3.961-8.376-6.7-8.376-6.7-1.856-12.8-1.7-23.244-.462-31.741-3.214,9.955-4.977,23.962-2.176,43.31,0,0-.711,2.759,8.369,6.719,0,0,10.509-4.266,10.509-5.575v-9.606C57.426,170.865,52.676,172.8,52.676,172.8Z" transform="translate(-40.259 -38.828)" fill="#b13e4f"/>
          <path id="Path_384" data-name="Path 384" d="M136.484,48.425s-25.527-6.25-52.7-2.346L76.55,64.687s-10.438-1.422-15.2,22.753c0,0-13.816,55.739-3.555,116.021,0,0,19.518,8.1,33.568,6.6s17.605-38.574,17.605-38.574S117.812,128.062,118,127.4s7.551-54.039,7.551-54.039Z" transform="translate(-44.231 -12.948)" fill="#0b436c"/>
          <path id="Path_385" data-name="Path 385" d="M119.216,142.517c.05-.178.569-3.825,1.315-9.13l-1.315-19.739-13.048,3.477s-3.057-13.567-11.775-19.845c0,0-15.3,28.165-15.273,29.267s-13.389,25.6-13.389,25.6,4.935,6.307,12,8.106l-1,8.419L67.58,207.222a25.494,25.494,0,0,1-9.35,6.4c.249,1.657.5,3.306.789,4.977,0,0,19.518,8.1,33.568,6.6s17.605-38.574,17.605-38.574S119.032,143.206,119.216,142.517Z" transform="translate(-45.451 -28.114)" fill="#181232"/>
          <path id="Path_386" data-name="Path 386" d="M86.53,90.128c4.707-23.848,14.107-25.093,15.942-25.093h.242l.782.107,7.878-20.322h-2.133l-7.075,18.224c-2.695.142-12.8,2.339-17.591,26.65-.142.59-13.51,55.853-6.087,118.339l2.062.484C72.949,146.123,86.374,90.761,86.53,90.128Z" transform="translate(-50.656 -12.955)" fill="#181232"/>
          <path id="Path_387" data-name="Path 387" d="M146.476,50.561s-17.62,4.615-19.049,33.028c0,0-14.8,12.429-17.911,45.173,0,0-13.183,54.907-6.947,82.915,0,0,17.236,2.809,40.928-.164L158.529,86.5,167.1,69.881S159.8,45.634,146.476,50.561Z" transform="translate(-57.779 -14.423)" fill="#181232"/>
          <path id="Path_388" data-name="Path 388" d="M226.093,83.476s.114-30.291-39.385-36.086C186.708,47.39,185.493,73.841,226.093,83.476Z" transform="translate(-82.574 -13.698)" fill="#f16885"/>
          <path id="Path_389" data-name="Path 389" d="M183.774,11.592s1.557-13.723-12-11.3c0,0-16.994,7.679-5.937,23.465,0,0,5.155,6.293,12.8,0C178.611,23.786,185.26,19.314,183.774,11.592Z" transform="translate(-75.465 -0.006)" fill="#181232"/>
          <path id="Path_390" data-name="Path 390" d="M210.252,64.479l.6-9.165s7.985,3.065,11.64,2.133c0,0,8.184-31.784,2.346-41.81,0,0-21.275-22.583-38.61-4.451,0,0-10.339,11.135,2.844,29.743,0,0,1.906,6.52.633,11.611" transform="translate(-81.324 -1.2)" fill="#f58867"/>
          <path id="Path_391" data-name="Path 391" d="M205.552,59.13s-4.408,9.13,4.408,16.439c0,0,4.522,1.379,6.833,1.9l.412-6.243S204.706,68.281,205.552,59.13Z" transform="translate(-87.701 -17.09)" fill="#e7724c"/>
          <path id="Path_392" data-name="Path 392" d="M224.843,15.667s-21.275-22.583-38.61-4.451c0,0-10.339,11.135,2.844,29.743a31.52,31.52,0,0,1,.91,4.849,8.98,8.98,0,0,0,4.764-8.461s-2.446-7.6,4.423-8.831c0,0,2.46-.242,3.2,3.69,0,0,5.575.967,7.11-3.69,0,0,7.224-4.217,2.524-12.8a87.459,87.459,0,0,0,12.834-.05Z" transform="translate(-81.324 -1.209)" fill="#181232"/>
          <path id="Path_393" data-name="Path 393" d="M215.189,100.755s7.822,39.108,5.269,55.284c0,0,14.164,6.343,26.9,9.528l-4.608,14.264s-30.049-4.885-37.977-8.7l-3.022-53.705,1.273-17.5S206.4,95.166,215.189,100.755Z" transform="translate(-86.921 -28.332)" fill="#161230"/>
          <path id="Path_394" data-name="Path 394" d="M192.767,85.726v11.5s17.982,23.507,2.368,36.974c0,0-15.288,45.99-17.158,62.01,0,0-36.342,5.895-53.848,1.195L134.6,121.69,145.5,83.5s7.637-10.779,25.64-13.78Z" transform="translate(-64.493 -20.15)" fill="#201943"/>
          <path id="Path_395" data-name="Path 395" d="M189.66,156.3s-23.912,6.065-24.126-16.077c0,0-10.986,18.487-10.915,19.532s0,18.338,0,18.338l10.26,13.929s7.971,8.483,7.971,6.8-3.043-19.589-.711-33.32C172.14,165.5,185.23,164.239,189.66,156.3Z" transform="translate(-73.303 -40.521)" fill="#181232"/>
          <path id="Path_396" data-name="Path 396" d="M170.958,133.42s-2.4,19.241.277,30.113l-6.606-.924-13.14-6.549Z" transform="translate(-72.398 -38.557)" fill="#181232"/>
          <path id="Path_397" data-name="Path 397" d="M193.683,98.036,172.352,72.09c-13.026,4.138-18.693,12.088-18.693,12.088L152.3,88.942A53.635,53.635,0,0,0,193.683,98.036Z" transform="translate(-72.632 -20.835)" fill="#181232"/>
          <path id="Path_398" data-name="Path 398" d="M154.18,85.825s12.507,16.006,17.556,31.514l-13.88,23.877,6.179,1.813A41.356,41.356,0,0,0,177.3,117.36s3.925-28.385-15.159-39.413C162.144,77.933,154.436,75.906,154.18,85.825Z" transform="translate(-73.176 -22.475)" fill="#0a3456"/>
          <path id="Path_399" data-name="Path 399" d="M173.2,133.29v.092L159.35,157.259l6.179,1.813a41.356,41.356,0,0,0,13.225-25.406A11.654,11.654,0,0,1,173.2,133.29Z" transform="translate(-74.67 -38.519)" fill="#012744"/>
          <path id="Path_400" data-name="Path 400" d="M145.117,97.28l-9.244,32.409-7.324,52.98,22.426,24.382a275.65,275.65,0,0,0,28.236-2.844c-3.619-3.719-7.111-6.89-7.111-6.89L143.574,169.65l12.8-42.563C155.093,107.683,149.618,100.16,145.117,97.28Z" transform="translate(-65.77 -28.114)" fill="#181232"/>
          <path id="Path_401" data-name="Path 401" d="M79.585,486.069s.526,12.294,0,16.269c0,0,10.445,7.238,11.377,10.744v2.8a56.232,56.232,0,0,1-22.426,0L52.43,489.958s3.157-8.333,8.469-10.708Z" transform="translate(-43.775 -138.486)" fill="#261f4e"/>
          <path id="Path_402" data-name="Path 402" d="M128.718,285.15s-9.293,47.64-18.971,61.186L102,357.613s-20.521,27.837-30.98,51.458c-2.958,6.7-5.112,11.149-6.677,14.093,1.422,3.129,5.688,7.587,18.686,6.819,0,0,30.575-49.176,41.433-61.15a75.158,75.158,0,0,0,10.068-17.812s25.171-34.08,29.046-43.758Z" transform="translate(-47.216 -82.4)" fill="#443c74"/>
          <path id="Path_403" data-name="Path 403" d="M146.71,310.463c.235.206.455.42.711.633,0,0,11.519,13.161,21.609,25.05,7.366-10.452,16.2-23.507,18.366-28.918L152.555,285.15S150.215,296.946,146.71,310.463Z" transform="translate(-71.017 -82.4)" fill="#312b56"/>
          <path id="Path_404" data-name="Path 404" d="M71.7,515.054,54.428,488.61a30.073,30.073,0,0,0-2,4.053l16.112,25.925a56.232,56.232,0,0,0,22.426,0v-2.8C79.03,516.526,71.7,515.054,71.7,515.054Z" transform="translate(-43.775 -141.19)" fill="#ffc50b"/>
          <path id="Path_405" data-name="Path 405" d="M251.17,494.29l2.738,12,16.546,5.816s8.661,3,9,9.834H232.114s-.711-9.77.476-17.03Z" transform="translate(-95.634 -142.831)" fill="#261f4e"/>
          <path id="Path_406" data-name="Path 406" d="M123.956,248.855s-5.24,23.962,20.969,47.178c0,0,31.457,35.951,35.951,42.663a28.265,28.265,0,0,1,1.785,6.065s-1.877,32.417,7.75,51.2c0,0,8.277,28.968,10.865,37.685,0,0,12.187,2.887,21.331-4.352,0,0-14.569-62.664-16.681-81.45,0,0,.469-18.793-4.7-26.543l-40.174-72.441S135.952,246.167,123.956,248.855Z" transform="translate(-64.319 -71.567)" fill="#443c74"/>
          <path id="Path_407" data-name="Path 407" d="M161.053,248.855s-25.1-2.688-37.1,0c0,0-3.683,16.894,10.666,36.057,5.34,2.908,12.351,4.231,21.623,2.645,0,0,12.251-2.652,20.215-10.943Z" transform="translate(-64.32 -71.567)" fill="#312b56"/>
          <path id="Path_408" data-name="Path 408" d="M232,527.971c.064,2.211.178,3.676.178,3.676h47.341a8.354,8.354,0,0,0-1.017-3.555C269.742,528.028,240.767,527.779,232,527.971Z" transform="translate(-95.662 -152.543)" fill="#ffc50b"/>
          <path id="Path_409" data-name="Path 409" d="M135.7,134.429c-3.555,31.393-4.316,65.836-4.387,69.6q.981.149,2.005.256h1.991c0-.9,1.763-90.232,14.05-114.329l-1.785-.91-10.893,38.226Z" transform="translate(-66.567 -25.736)" fill="#ffc30d"/>
          <path id="Path_410" data-name="Path 410" d="M136.37,185.462c1.209-26.38,4.323-71.346,11.867-90.673a13.387,13.387,0,0,0-1.3-.789l-9.9,34.749-.981,7.11c-1.8,15.807-2.844,32.388-3.52,45.436Z" transform="translate(-66.92 -27.166)" fill="#ecae20"/>
          <path id="Path_411" data-name="Path 411" d="M214.192,90.78s10.1,59.507-.512,108.349" transform="translate(-90.368 -26.236)" fill="none" stroke="#ffc30d" stroke-miterlimit="10" stroke-width="2"/>
          <path id="Path_412" data-name="Path 412" d="M130.75,246.092s-.455,44.355,38.453,37.685c0,0,37.749-8.127,23.813-40.65C193.016,243.12,151.832,239.771,130.75,246.092Z" transform="translate(-66.405 -69.999)" fill="#ecae20"/>
          <path id="Path_413" data-name="Path 413" d="M167.2,270.149s33.689-2.005,25.939-26.814a.6.6,0,0,0-.085-.228c-.036-.078-41.184-3.349-62.266,2.972C130.761,246.08,134.26,274.323,167.2,270.149Z" transform="translate(-66.417 -69.987)" fill="#ffc30d"/>
          <path id="Path_414" data-name="Path 414" d="M203.947,263.407a28.377,28.377,0,0,0-4.266-10.253l1-.711a76.855,76.855,0,0,0-8.739-9.869,295.475,295.475,0,0,0-30.575.178l9.72,10.566,12.92,11.277.626-.448c3.555,5.084,5.447,12.557,5.923,14.64C196.033,275.6,201.708,270.7,203.947,263.407Z" transform="translate(-75.253 -70.007)" fill="#1a1437" opacity="0.3" style="mix-blend-mode: multiply;isolation: isolate"/>
          <path id="Path_415" data-name="Path 415" d="M210.823,251.573s5.9,7.3,5.688,15.273c0,0-1.557,12.586-13.553,12.486,0,0-2.688-13.51-8.959-18.395C194,260.937,196.766,247.378,210.823,251.573Z" transform="translate(-84.682 -72.465)" fill="#f58867"/>
          <path id="Path_416" data-name="Path 416" d="M147.41,89.08s15.309-2.7,17.556,31.514L152.8,161.123l27.9,29.7s10.353,9.457,13.951,14.861l-16.66,12.152-12.913-11.277L130.75,169.214S130.75,120.593,147.41,89.08Z" transform="translate(-66.406 -25.73)" fill="#261f4e"/>
          <path id="Path_417" data-name="Path 417" d="M208.634,247.051c-3.6-5.4-13.951-14.861-13.951-14.861a50.371,50.371,0,0,0-15.643,15.735L191.953,259.2Z" transform="translate(-80.359 -67.097)" fill="#443c74"/>
          <path id="Path_418" data-name="Path 418" d="M208.467,71.294s-10.026,2.133-21.893-9.364a30.51,30.51,0,0,0-1.052-8.476,43.724,43.724,0,0,1-3.633-6.044h0s-10.516,5.4-10.09,15.863a9.748,9.748,0,0,0,0,11.291s24.652,25.6,37.685,12.7c0,0,6.662.171,11.775-3.783C221.266,83.481,217.8,71.337,208.467,71.294Z" transform="translate(-77.746 -13.704)" fill="#f16885"/>
          <path id="Path_419" data-name="Path 419" d="M291.055,180.061l-6.492-21.751L245.05,186.681l14.328,24.161Z" transform="translate(-99.433 -45.749)" fill="#007bc2"/>
          <path id="Path_420" data-name="Path 420" d="M271.881,164.23l-32.481,36.7,18.345,11.618,31.677-30.781Z" transform="translate(-97.8 -47.459)" fill="#008fcf"/>
          <path id="Path_421" data-name="Path 421" d="M293.443,198.065s-22.384-3.989-15.1,14.669C278.347,212.733,298.647,216.708,293.443,198.065Z" transform="translate(-108.633 -57.132)" fill="#f58867"/>
          <path id="Path_422" data-name="Path 422" d="M180.466,65.436a11.924,11.924,0,0,1,4.266-12.8l.114-.206a43.8,43.8,0,0,1-2.951-5.041h0S171.371,52.8,171.8,63.268a9.748,9.748,0,0,0,0,11.291s1.507,1.564,3.968,3.726C174.038,70.2,180.466,65.436,180.466,65.436Z" transform="translate(-77.746 -13.698)" fill="#e9556a"/>
          <path id="Path_423" data-name="Path 423" d="M244.3,42.54c-.242,3.875-.754,7.893-1.351,11.583h0a13.63,13.63,0,0,0,4.551,0Z" transform="translate(-98.826 -12.296)" fill="#e7724c"/>
          <path id="Path_424" data-name="Path 424" d="M87.681,155.82a26.212,26.212,0,0,0,11.974-3.655s9.876-35.68,2.254-54.886C101.909,97.28,74.875,112.56,87.681,155.82Z" transform="translate(-52.965 -28.114)" fill="#ca495a"/>
          <path id="Path_425" data-name="Path 425" d="M95.545,96.647s-11.377-3.505-20.009,0c0,0-18.665,25.726-11.81,54.886,0,0,5.61,3.342,17.591,3.655C81.317,155.187,79.219,122.458,95.545,96.647Z" transform="translate(-46.601 -27.481)" fill="#e9556a"/>
          <path id="Path_426" data-name="Path 426" d="M72.26,130.7c-2.546-5.255-3.193-12.088-3.328-16.354-.818,1.835-1.621,3.833-2.389,5.994,1.422,12.8,4.693,16.738,4.693,16.738l9.514-7.48c-2.7,14.712-12.315,18.288-18.26,19.063a56.614,56.614,0,0,0,1.315,8.433s5.61,3.342,17.591,3.655c0,0-1.422-22.512,7.388-44.917A182.923,182.923,0,0,1,72.26,130.7Z" transform="translate(-46.681 -33.046)" fill="#ca495a"/>
          <path id="Path_427" data-name="Path 427" d="M80.953,240.905a19.675,19.675,0,0,0,9-2.745s7.423-26.821,1.692-41.241C91.668,196.906,71.354,208.389,80.953,240.905Z" transform="translate(-51.272 -56.905)" fill="#ca495a"/>
          <path id="Path_428" data-name="Path 428" d="M86.887,196.424s-8.533-2.638-15.039,0c0,0-14.036,19.34-8.881,41.241,0,0,4.224,2.51,13.225,2.745C76.172,240.423,74.615,215.828,86.887,196.424Z" transform="translate(-46.491 -56.423)" fill="#e9556a"/>
          <path id="Path_429" data-name="Path 429" d="M69.4,222.013c-1.913-3.946-2.4-9.059-2.5-12.273-.612,1.372-1.223,2.88-1.792,4.5,1.074,9.642,3.555,12.586,3.555,12.586l7.153-5.639c-2.034,11.064-9.244,13.752-13.723,14.335a42.022,42.022,0,0,0,.981,6.335s4.224,2.51,13.225,2.745a88.08,88.08,0,0,1,5.553-33.76A137.313,137.313,0,0,1,69.4,222.013Z" transform="translate(-46.566 -60.61)" fill="#ca495a"/>
          <path id="Path_430" data-name="Path 430" d="M198.556,90.78A24.17,24.17,0,0,0,205.83,99.8s-3.321,1.8-10.36-.142c7.274,3.953,15.5,5.959,21.381.142C216.851,99.8,204.323,97.293,198.556,90.78Z" transform="translate(-85.107 -26.236)" fill="#e9556a"/>
          <path id="Path_431" data-name="Path 431" d="M110.836,275.06s1.529,29.06-10.246,39.108l5.162,3.513s11.377-15.288,8.867-42.592Z" transform="translate(-57.691 -79.484)" fill="#0a3456"/>
          <path id="Path_432" data-name="Path 432" d="M84.9,268.28s-8.988,17.342,0,34.13l5.283-4.266s-6.314-14.029-1.052-28.563Z" transform="translate(-52.002 -77.525)" fill="#0a3456"/>
        </g>
      </g>
      <path id="Path_433" data-name="Path 433" d="M413.116,4.666c-4.152-4.849-14.932-1.8-22.341,2.133,0,0-5.091,2.4-6.99,3.641h-.057l-17.3-2.133a7.018,7.018,0,0,0-4.089.711l-1.422.711a.953.953,0,0,0,.057,1.721l12.735,5.44v.156l-12.55,8.3-.192.121a11.192,11.192,0,0,1-8.006,1.593l-6.727-1.209a1.927,1.927,0,0,0-1.024.085,1.7,1.7,0,0,0-.448,2.844l7.822,6.52a4.1,4.1,0,0,0,4.366.583L360.6,34.2l18.487-8.8-2.133,10.516a.711.711,0,0,0,.711.811h.875A3.47,3.47,0,0,0,381.382,35l7.445-14.221L410.62,10.4C413.528,9.075,414.566,6.579,413.116,4.666Z" transform="translate(-99.452 -0.632)" fill="#e8e8e8"/>
      <path id="Path_434" data-name="Path 434" d="M288.633,135.045H262.85s2.282-4.145,8.917-3.555c6.343.576,6.663-2.041,9.884-2.361S287.559,131.29,288.633,135.045Z" transform="translate(-75.952 -37.309)" fill="#e8e8e8"/>
      <g id="Group_67" data-name="Group 67" transform="translate(202.193 256.598)">
        <path id="Path_435" data-name="Path 435" d="M310.185,479.031c.619-2.446-1-4.892-2.8-6.648s-3.968-3.342-4.913-5.688c-1.536-3.79.469-8.717-2.133-11.875-1.529-1.856-4.266-2.467-5.617-4.451a10.183,10.183,0,0,1-1.237-3.555A36.107,36.107,0,0,0,284.4,430.04a31.358,31.358,0,0,0,3.626,16.19c1.052,1.991,2.354,3.925,2.709,6.143.583,3.612-1.422,7.345-.5,10.879,1.038,4.053,5.61,6.741,5.852,10.915.2,3.555-2.844,6.641-2.61,10.168a9.542,9.542,0,0,0,1.593,4.174c2.759,4.522,6.783,7.622,12.856,7.487l7.445.22Z" transform="translate(-284.36 -380.864)" fill="#c7e5ca"/>
        <g id="Group_66" data-name="Group 66" transform="translate(6.309)">
          <g id="Group_64" data-name="Group 64" transform="translate(22.441 23.287)">
            <path id="Path_436" data-name="Path 436" d="M328.553,485.9a5.844,5.844,0,0,0,2.048-.057,12.718,12.718,0,0,0,2.418-.619A10.357,10.357,0,0,0,336,483.563a4.266,4.266,0,0,0,1.216-1.642,7.823,7.823,0,0,0,.341-2.226,20.239,20.239,0,0,1,.156-2.41,6.664,6.664,0,0,1,.9-2.4c.867-1.543,2.318-3.015,2.773-5.112a17.782,17.782,0,0,0-.235-6.52c-.356-2.254-.711-4.657.135-6.99s2.4-4.444,3.207-7.11.4-5.5.555-8.312a11.043,11.043,0,0,1,.946-4.138c.6-1.315,1.422-2.567,2.069-3.953,1.3-2.844,1.522-5.994,1.863-9.108q.249-2.354.5-4.757a23.412,23.412,0,0,1,.8-4.764,41.409,41.409,0,0,1,1.749-4.615,15.322,15.322,0,0,0,.853-2.41,24.442,24.442,0,0,0,.263-2.538,30.578,30.578,0,0,0-.228-5.155c-.213-1.714-.533-3.413-.711-5.134a.841.841,0,0,0-.036-.3l-.043-.341-.306.156a11.519,11.519,0,0,0-3.989,3.4,18.49,18.49,0,0,0-2.432,4.551,55.656,55.656,0,0,0-2.261,9.763,26.725,26.725,0,0,1-3.008,9.016c-.811,1.33-1.785,2.546-2.645,3.84a10.573,10.573,0,0,0-1.82,4.266c-.427,3.15,1.33,5.909.981,8.7a9.549,9.549,0,0,1-1.337,3.868c-.668,1.195-1.458,2.3-2.2,3.413a21.685,21.685,0,0,0-1.977,3.449,10.9,10.9,0,0,0-.9,3.733c-.164,2.51.206,4.892.036,7.11a16.453,16.453,0,0,1-1.806,6.129c-.889,1.835-1.877,3.491-2.709,5.105a25.377,25.377,0,0,0-1.116,2.375,12.034,12.034,0,0,0-.64,2.361,14.934,14.934,0,0,0,0,4.266,10.723,10.723,0,0,0,2.133,5.4,4.977,4.977,0,0,0,.6.647,2.546,2.546,0,0,0,.491.412c.277.206.427.3.427.3a9.753,9.753,0,0,1-1.422-1.422,10.78,10.78,0,0,1-2.048-5.369,14.934,14.934,0,0,1,.071-4.188,10.986,10.986,0,0,1,.647-2.3c.313-.768.711-1.55,1.116-2.346.839-1.593,1.842-3.249,2.752-5.1a16.6,16.6,0,0,0,1.863-6.236c.185-2.3-.178-4.679,0-7.11a10.667,10.667,0,0,1,.875-3.612,21.963,21.963,0,0,1,1.955-3.377c.747-1.1,1.55-2.211,2.233-3.434a10.067,10.067,0,0,0,1.422-4.025c.341-2.972-1.422-5.745-.967-8.675a10.041,10.041,0,0,1,1.763-4.067c.839-1.273,1.827-2.489,2.659-3.854a27.067,27.067,0,0,0,3.079-9.165,54.363,54.363,0,0,1,2.247-9.677,17.608,17.608,0,0,1,2.368-4.43,11.049,11.049,0,0,1,3.818-3.264l-.341-.192a.921.921,0,0,0,.036.306c.192,1.735.512,3.441.711,5.141a29.567,29.567,0,0,1,.228,5.07c-.043.832-.092,1.7-.213,2.482a15.388,15.388,0,0,1-.825,2.325,43.012,43.012,0,0,0-1.771,4.664,24.016,24.016,0,0,0-.811,4.842c-.164,1.607-.334,3.193-.5,4.764-.334,3.129-.555,6.257-1.813,8.973-.619,1.351-1.422,2.6-2.055,3.961a11.441,11.441,0,0,0-.974,4.266c-.149,2.844.242,5.688-.519,8.227s-2.368,4.657-3.171,7.061a14.853,14.853,0,0,0-.121,7.167,16.661,16.661,0,0,1,.277,6.4c-.469,1.984-1.827,3.456-2.716,5.041a6.783,6.783,0,0,0-.9,2.5,22.666,22.666,0,0,0-.149,2.439,7.456,7.456,0,0,1-.3,2.133,3.918,3.918,0,0,1-1.152,1.571,10.3,10.3,0,0,1-2.9,1.664,12.837,12.837,0,0,1-2.382.661,10.261,10.261,0,0,1-1.515.156C328.731,485.888,328.553,485.9,328.553,485.9Z" transform="translate(-324.795 -393.63)" fill="#399b46"/>
            <path id="Path_437" data-name="Path 437" d="M353.094,399.91a.64.64,0,0,0-.071.22c-.043.178-.092.4-.164.676-.142.583-.313,1.472-.583,2.581s-.953,2.354-1.522,3.889-1.195,3.3-1.742,5.29-1.045,4.2-1.557,6.556a28.014,28.014,0,0,1-2.339,7.288c-.6,1.209-1.287,2.439-1.82,3.776a17.624,17.624,0,0,0-1.052,4.266,85.991,85.991,0,0,1-1.557,9.023l-4.11,17.222c-1.294,5.276-2.467,10.033-3.449,14.043s-1.735,7.2-2.282,9.478q-.384,1.643-.6,2.581c-.057.277-.107.5-.142.676a1.191,1.191,0,0,0-.036.235.844.844,0,0,0,.078-.22c.057-.178.114-.4.192-.661.164-.626.4-1.479.711-2.567.583-2.268,1.422-5.482,2.432-9.436s2.218-8.753,3.555-14.022,2.681-11.114,4.153-17.229a86.977,86.977,0,0,0,1.55-9.044,17.061,17.061,0,0,1,1-4.174c.519-1.308,1.187-2.531,1.792-3.754a27.675,27.675,0,0,0,2.332-7.395c.5-2.368.967-4.565,1.5-6.549s1.1-3.754,1.664-5.283a31.636,31.636,0,0,0,1.422-3.946c.235-1.145.391-2.012.5-2.61.043-.27.085-.5.114-.676a.981.981,0,0,0,.021-.235Z" transform="translate(-326.319 -395.445)" fill="#399b46"/>
          </g>
          <g id="Group_65" data-name="Group 65">
            <path id="Path_438" data-name="Path 438" d="M320.749,476.446c4.842-2.915,6.186-11.7,4.131-16.958s-5.631-10.068-6.215-15.7c-.441-4.323.946-8.767-.085-12.991-1.422-5.688-6.99-10.09-6.954-15.956,0-3.292,1.87-6.4,1.7-9.684-.206-4.032-3.321-7.217-5.255-10.758-2.965-5.418-3.193-11.846-4.266-17.94s-3.4-12.607-8.824-15.579c-.768,5.184-2.133,8.739-1.643,15.75.171,2.517,3.121,7.324,3.555,12.841.263,3.292.441,6.6.661,9.9a31.371,31.371,0,0,0,1.614,9.485c.9,2.3,2.325,4.38,2.993,6.755,1.259,4.465-.334,9.322.711,13.851.86,3.833,3.555,7.11,4.1,11.014.8,5.468-2.716,11.171-.875,16.354.917,2.581,3.057,4.65,3.676,7.324.483,2.069,0,4.266.42,6.35.711,3.356,7.11,5.923,10.545,5.688" transform="translate(-293.234 -360.88)" fill="#399b46"/>
            <path id="Path_439" data-name="Path 439" d="M297.667,368.1a1.5,1.5,0,0,0,0,.292,7.728,7.728,0,0,0,.114.853c.114.747.249,1.842.5,3.257s1.024,3.029,1.628,4.977,1.259,4.152,1.82,6.641,1.045,5.248,1.55,8.22a33.626,33.626,0,0,0,2.546,9.286c.711,1.55,1.465,3.1,2.048,4.75a21.21,21.21,0,0,1,1.052,5.247,106.663,106.663,0,0,0,1.493,11.32c1.529,7.658,2.993,14.932,4.316,21.6s2.659,12.571,3.719,17.591,1.962,8.995,2.574,11.839c.306,1.372.54,2.453.711,3.221.085.341.149.619.2.832a1.336,1.336,0,0,0,.085.277,1.687,1.687,0,0,0-.035-.284c-.043-.22-.092-.5-.149-.846-.156-.775-.363-1.856-.633-3.235-.569-2.844-1.387-6.89-2.4-11.889s-2.261-10.986-3.619-17.613-2.759-13.937-4.266-21.594a107.768,107.768,0,0,1-1.493-11.277,22.042,22.042,0,0,0-1.088-5.354c-.6-1.685-1.387-3.242-2.076-4.785a34.115,34.115,0,0,1-2.56-9.173c-.54-2.958-1.024-5.724-1.614-8.22a68.242,68.242,0,0,0-1.9-6.655c-.626-1.941-1.422-3.555-1.692-4.92s-.448-2.5-.6-3.242c-.064-.348-.121-.626-.156-.839A1.782,1.782,0,0,0,297.667,368.1Z" transform="translate(-294.513 -362.966)" fill="#40a849"/>
          </g>
        </g>
      </g>
    </g>
  </g>
</svg>
