<svg id="Layer_1" data-name="Layer 1" xmlns="http://www.w3.org/2000/svg" viewBox="0 0 570.6 679.02"><defs><style>.cls-1{fill:none;}.cls-2{fill:#c4c4c4;}.cls-3{fill:#ffca44;}.cls-4{fill:#15467b;}</style></defs><path class="cls-1" d="M239.82,317.4h145l-28.51,66.18-216.7.57L255,104.85c-86.65,14.42-152.73,89.7-152.73,180.45a183,183,0,1,0,336.55-99.46L405,268l-71.31-.4,54.92-133.33A181.84,181.84,0,0,0,326.49,107Z"/><path class="cls-2" d="M388.62,134.28l21.66-52.56A237.39,237.39,0,0,0,348,54.79L326.49,107A181.84,181.84,0,0,1,388.62,134.28Z"/><path class="cls-2" d="M285.3,468.29a183,183,0,0,1-183-183c0-90.75,66.08-166,152.73-180.45l15.52-37.54C156.74,74.89,66.75,169.56,66.75,285.3c0,120.7,97.85,218.55,218.55,218.55S503.85,406,503.85,285.3a217.42,217.42,0,0,0-49.13-138l-15.86,38.5A182.94,182.94,0,0,1,285.3,468.29Z"/><path class="cls-3" d="M270.86,67.28l-.3,0L255,104.85,139.58,384.15l216.7-.57,28.51-66.18h-145L326.49,107,348,54.79l17.82-43.26A284.3,284.3,0,0,0,298.27.29l0,0h.19Z"/><path class="cls-4" d="M482.72,79.39v0c-.37-.36-.75-.68-1.13-1a285.79,285.79,0,0,0-53.44-40L410.28,81.72l-21.66,52.56L333.7,267.61,405,268l33.85-82.17,15.86-38.5a217.42,217.42,0,0,1,49.13,138C503.85,406,406,503.85,285.3,503.85S66.75,406,66.75,285.3c0-115.74,90-210.41,203.81-218l.3,0L298.44.33h-.19C294,.14,289.64,0,285.3,0,127.73,0,0,127.73,0,285.3A284.63,284.63,0,0,0,98.28,500.75a1.23,1.23,0,0,0,.33.47L282.14,677.74a4.55,4.55,0,0,0,6.32,0L472,501.22a6.06,6.06,0,0,0,.7-.8,285.23,285.23,0,0,0,10-421Z"/></svg>