<svg xmlns="http://www.w3.org/2000/svg" viewBox="0 0 119 31.399"><defs><style>.a{fill:none;}.b{fill:#c4c4c4;}.c{fill:#b8c7d7;}.d{fill:#ffca44;}.e{fill:#fff;}</style></defs><path class="a" d="M40.5,44.827h6.7L45.891,47.89l-10.021.026L41.209,35a8.461,8.461,0,1,0,8.5,3.742l-1.566,3.8-3.3-.018,2.539-6.166a8.394,8.394,0,0,0-2.873-1.26Z" transform="translate(-29.416 -30.149)"/><path class="b" d="M111.8,21.938l1-2.431a11.027,11.027,0,0,0-2.88-1.247l-1,2.416A8.394,8.394,0,0,1,111.8,21.938Z" transform="translate(-93.833 -15.729)"/><path class="c" d="M32.354,41.019a8.462,8.462,0,0,1-1.4-16.8l.718-1.735a10.108,10.108,0,1,0,8.517,3.7l-.733,1.777a8.462,8.462,0,0,1-7.1,13.062Z" transform="translate(-19.161 -19.364)"/><path class="d" d="M52.641,3.2h-.014l-.718,1.739L46.57,17.85l10.021-.026,1.318-3.06H51.2L55.21,5.036l1-2.416.832-2A13.146,13.146,0,0,0,53.909.1h0Z" transform="translate(-40.116 -0.086)"/><path class="e" d="M22.324,3.672h0l-.051-.047A13.294,13.294,0,0,0,19.8,1.774L18.97,3.781l-1,2.428-2.539,6.166,3.3.018,1.566-3.8.733-1.78a10.107,10.107,0,1,1-8.517-3.7h.014L13.8.015h-.008C13.6.007,13.4,0,13.194,0A13.193,13.193,0,0,0,4.546,23.156a.064.064,0,0,0,.015.022l8.486,8.164a.213.213,0,0,0,.292,0l8.488-8.164a.255.255,0,0,0,.032-.037,13.189,13.189,0,0,0,.464-19.469Z" transform="translate(-0.001)"/><g transform="translate(32.28 5.39)"><path class="e" d="M232.9,40.189l2.762-1.3V55.938H232.9Z" transform="translate(-232.9 -38.89)"/><path class="e" d="M275.639,85.736a3.78,3.78,0,0,1-3.163,1.441c-2.291,0-4.3-1.275-4.3-4.959V74.83h2.761v6.894c0,1.983.851,2.809,2.267,2.809,1.464,0,2.431-.755,2.431-2.762V74.83H278.4V86.888h-2.762Z" transform="translate(-263.29 -69.849)"/><path class="e" d="M356.318,87.638c3.4-.236,4.392-.991,4.392-2.62v-.685a3.514,3.514,0,0,1-2.739,1.087c-2.833,0-4.981-2.126-4.981-6.327,0-3.943,2.054-6.3,5-6.3A3.742,3.742,0,0,1,360.71,73.8v-.732h2.759V83.933c0,3.989-1.534,5.617-5.689,5.925ZM360.71,81.6v-5a2.736,2.736,0,0,0-2.266-1.179c-1.724,0-2.692,1.3-2.692,3.683,0,2.218.97,3.683,2.692,3.683a2.588,2.588,0,0,0,2.263-1.181Z" transform="translate(-336.346 -68.091)"/><path class="e" d="M442.936,87.638c3.4-.236,4.391-.991,4.391-2.62v-.685a3.511,3.511,0,0,1-2.737,1.087c-2.833,0-4.99-2.126-4.99-6.327,0-3.943,2.054-6.3,5.006-6.3A3.735,3.735,0,0,1,447.32,73.8v-.732h2.762V83.933c0,3.989-1.534,5.617-5.683,5.925Zm4.391-6.043v-5a2.733,2.733,0,0,0-2.266-1.179c-1.723,0-2.692,1.3-2.692,3.683,0,2.218.97,3.683,2.692,3.683A2.588,2.588,0,0,0,447.327,81.6Z" transform="translate(-410.952 -68.091)"/><path class="e" d="M545.93,45.109a5.655,5.655,0,0,1,2.714-4.509l1.109.779a5.37,5.37,0,0,0-1.487,2.313,1.742,1.742,0,0,1,1.464,1.748,1.824,1.824,0,0,1-1.864,1.868A1.966,1.966,0,0,1,545.93,45.109Z" transform="translate(-502.544 -40.363)"/><path class="e" d="M593.453,78.216c0-1.982-.85-2.808-2.243-2.808-1.487,0-2.455.779-2.455,2.762v6.963H586V73.075h2.762V74.2a3.881,3.881,0,0,1,3.188-1.416c2.29,0,4.273,1.247,4.273,4.934v7.412h-2.771Z" transform="translate(-537.061 -68.083)"/><path class="e" d="M695.379,87.638c3.4-.236,4.391-.991,4.391-2.62v-.685a3.512,3.512,0,0,1-2.739,1.087c-2.833,0-4.981-2.126-4.981-6.327,0-3.943,2.054-6.3,5-6.3A3.742,3.742,0,0,1,699.77,73.8v-.732h2.762V83.933c0,3.989-1.534,5.617-5.683,5.925ZM699.77,81.6v-5a2.734,2.734,0,0,0-2.266-1.179c-1.719,0-2.689,1.3-2.689,3.683,0,2.218.97,3.683,2.692,3.683A2.588,2.588,0,0,0,699.77,81.6Z" transform="translate(-628.412 -68.091)"/><path class="e" d="M778.73,79.117c0-3.943,2.15-6.327,5.525-6.327,3.4,0,5.544,2.384,5.544,6.327,0,3.965-2.148,6.3-5.544,6.3C780.88,85.421,778.73,83.082,778.73,79.117Zm8.316,0c0-2.29-1.062-3.706-2.786-3.706-1.676,0-2.762,1.416-2.762,3.706s1.087,3.659,2.762,3.659c1.715,0,2.78-1.364,2.78-3.659Z" transform="translate(-703.078 -68.091)"/></g></svg>