<svg xmlns="http://www.w3.org/2000/svg" viewBox="0 0 145.994 38.456"><defs><style>.a{fill:none;}.b{fill:#c4c4c4;}.c{fill:#ffca44;}.d{fill:#15467b;}.e{fill:#14477b;stroke:#12487b;stroke-miterlimit:10;stroke-width:0.5px;}</style></defs><g transform="translate(-0.001)"><g transform="translate(0.001)"><path class="a" d="M41.932,47.035h8.209L48.53,50.787l-12.273.032L42.8,35a10.363,10.363,0,1,0,10.412,4.583L51.29,44.238l-4.038-.022,3.11-7.552a10.28,10.28,0,0,0-3.519-1.543Z" transform="translate(-28.352 -29.059)"/><path class="b" d="M112.449,22.765l1.227-2.977a13.5,13.5,0,0,0-3.527-1.528l-1.219,2.959A10.28,10.28,0,0,1,112.449,22.765Z" transform="translate(-90.44 -15.16)"/><path class="b" d="M34.626,45.186a10.363,10.363,0,0,1-1.714-20.58l.879-2.125a12.38,12.38,0,1,0,10.431,4.532l-.9,2.176a10.363,10.363,0,0,1-8.7,16Z" transform="translate(-18.468 -18.664)"/><path class="c" d="M54,3.894h-.017l-.879,2.13L46.57,21.84l12.273-.032,1.614-3.748H52.245L57.152,6.145l1.219-2.959L59.389.737A16.1,16.1,0,0,0,55.558.1h0Z" transform="translate(-38.665 -0.083)"/><path class="d" d="M27.341,4.5h0l-.063-.058a16.282,16.282,0,0,0-3.027-2.266L23.233,4.631,22.011,7.6,18.9,15.157l4.038.022,1.918-4.654.9-2.18A12.378,12.378,0,1,1,15.324,3.813h.017L16.9.019h-.01C16.65.008,16.406,0,16.159,0A16.158,16.158,0,0,0,5.567,28.36a.078.078,0,0,0,.019.027l10.394,10a.261.261,0,0,0,.358,0l10.4-10a.312.312,0,0,0,.039-.046A16.153,16.153,0,0,0,27.341,4.5Z" transform="translate(-0.001)"/></g><g transform="translate(39.536 6.602)"><path class="e" d="M232.9,40.481l3.383-1.591V59.769H232.9Z" transform="translate(-232.9 -38.89)"/><path class="e" d="M277.316,88.188a4.629,4.629,0,0,1-3.874,1.765c-2.806,0-5.262-1.562-5.262-6.074V74.83h3.381v8.443c0,2.429,1.042,3.441,2.777,3.441,1.793,0,2.977-.925,2.977-3.383v-8.5H280.7V89.6h-3.383Z" transform="translate(-262.191 -68.729)"/><path class="e" d="M357.066,90.975c4.164-.289,5.379-1.214,5.379-3.208v-.839a4.3,4.3,0,0,1-3.354,1.331c-3.47,0-6.1-2.6-6.1-7.749,0-4.829,2.516-7.72,6.13-7.72a4.583,4.583,0,0,1,3.325,1.243v-.9h3.38v13.3c0,4.885-1.879,6.88-6.968,7.257Zm5.379-7.4v-6.13A3.351,3.351,0,0,0,359.67,76c-2.112,0-3.3,1.589-3.3,4.51,0,2.716,1.188,4.51,3.3,4.51a3.17,3.17,0,0,0,2.772-1.446Z" transform="translate(-332.605 -67.036)"/><path class="e" d="M443.686,90.975c4.164-.289,5.378-1.214,5.378-3.208v-.839a4.3,4.3,0,0,1-3.353,1.331c-3.47,0-6.111-2.6-6.111-7.749,0-4.829,2.516-7.72,6.131-7.72a4.575,4.575,0,0,1,3.324,1.243v-.9h3.383v13.3c0,4.885-1.879,6.88-6.96,7.257Zm5.378-7.4v-6.13A3.347,3.347,0,0,0,446.288,76c-2.11,0-3.3,1.589-3.3,4.51,0,2.716,1.188,4.51,3.3,4.51A3.169,3.169,0,0,0,449.064,83.574Z" transform="translate(-404.513 -67.036)"/><path class="e" d="M545.93,46.122a6.926,6.926,0,0,1,3.324-5.522l1.358.954a6.577,6.577,0,0,0-1.821,2.833,2.133,2.133,0,0,1,1.793,2.141,2.234,2.234,0,0,1-2.283,2.288A2.408,2.408,0,0,1,545.93,46.122Z" transform="translate(-492.794 -40.31)"/><path class="e" d="M595.127,79.438c0-2.427-1.041-3.439-2.747-3.439-1.821,0-3.006.954-3.006,3.383V87.91H586V73.142h3.383v1.373a4.753,4.753,0,0,1,3.9-1.735c2.8,0,5.233,1.528,5.233,6.043V87.9h-3.393Z" transform="translate(-526.062 -67.027)"/><path class="e" d="M696.127,90.975c4.162-.289,5.378-1.214,5.378-3.208v-.839a4.3,4.3,0,0,1-3.354,1.331c-3.47,0-6.1-2.6-6.1-7.749,0-4.829,2.516-7.72,6.13-7.72a4.582,4.582,0,0,1,3.325,1.243v-.9h3.383v13.3c0,4.885-1.879,6.88-6.96,7.257Zm5.378-7.4v-6.13A3.349,3.349,0,0,0,698.73,76c-2.1,0-3.293,1.589-3.293,4.51,0,2.716,1.188,4.51,3.3,4.51A3.169,3.169,0,0,0,701.5,83.574Z" transform="translate(-614.11 -67.036)"/><path class="e" d="M778.73,80.539c0-4.829,2.633-7.749,6.766-7.749,4.164,0,6.79,2.92,6.79,7.749,0,4.857-2.631,7.72-6.79,7.72C781.363,88.259,778.73,85.4,778.73,80.539Zm10.185,0c0-2.8-1.3-4.539-3.412-4.539-2.052,0-3.383,1.735-3.383,4.539s1.331,4.481,3.383,4.481c2.1,0,3.405-1.67,3.405-4.481Z" transform="translate(-686.076 -67.036)"/></g></g></svg>